<svg xmlns="http://www.w3.org/2000/svg" width="900" height="1050" viewBox="0 0 900 1050"><defs><marker id="a6b7280" markerWidth="10" markerHeight="10" refX="8" refY="3" orient="auto"><path d="M0 0L0 6L9 3z" fill="#6b7280"/></marker><marker id="a2563eb" markerWidth="10" markerHeight="10" refX="8" refY="3" orient="auto"><path d="M0 0L0 6L9 3z" fill="#2563eb"/></marker><marker id="adc2626" markerWidth="10" markerHeight="10" refX="8" refY="3" orient="auto"><path d="M0 0L0 6L9 3z" fill="#dc2626"/></marker><marker id="a16a34a" markerWidth="10" markerHeight="10" refX="8" refY="3" orient="auto"><path d="M0 0L0 6L9 3z" fill="#16a34a"/></marker><marker id="ad97706" markerWidth="10" markerHeight="10" refX="8" refY="3" orient="auto"><path d="M0 0L0 6L9 3z" fill="#d97706"/></marker><marker id="af97316" markerWidth="10" markerHeight="10" refX="8" refY="3" orient="auto"><path d="M0 0L0 6L9 3z" fill="#f97316"/></marker><marker id="a0f766e" markerWidth="10" markerHeight="10" refX="8" refY="3" orient="auto"><path d="M0 0L0 6L9 3z" fill="#0f766e"/></marker><marker id="a475569" markerWidth="10" markerHeight="10" refX="8" refY="3" orient="auto"><path d="M0 0L0 6L9 3z" fill="#475569"/></marker><marker id="a1f2937" markerWidth="10" markerHeight="10" refX="8" refY="3" orient="auto"><path d="M0 0L0 6L9 3z" fill="#1f2937"/></marker></defs><rect width="100%" height="100%" fill="white"/><polyline points="410,120 410,185" fill="none" stroke="#6b7280" stroke-width="2" marker-end="url(#a6b7280)"/><polyline points="410,265 410,330" fill="none" stroke="#6b7280" stroke-width="2" marker-end="url(#a6b7280)"/><polyline points="410,410 410,475" fill="none" stroke="#6b7280" stroke-width="2" marker-end="url(#a6b7280)"/><polyline points="410,555 410,620" fill="none" stroke="#6b7280" stroke-width="2" marker-end="url(#a6b7280)"/><polyline points="410,700 410,765" fill="none" stroke="#6b7280" stroke-width="2" marker-end="url(#a6b7280)"/><polyline points="410,845 410,910" fill="none" stroke="#6b7280" stroke-width="2" marker-end="url(#a6b7280)"/><polyline points="520,358 562,358 562,306 443,306 443,330" fill="none" stroke="#f97316" stroke-width="2" marker-end="url(#af97316)"/><polyline points="570,215 300,215 300,225" fill="none" stroke="#475569" stroke-width="2" stroke-dasharray="8 6" marker-end="url(#a475569)"/><polyline points="520,660 570,660 570,650" fill="none" stroke="#475569" stroke-width="2" stroke-dasharray="8 6" marker-end="url(#a475569)"/><rect x="428" y="292" width="220" height="27.92" rx="8" fill="#f1f5f9" fill-opacity="0.92" stroke="transparent" stroke-width="1"/><ellipse cx="410" cy="80" rx="110" ry="40" fill="#dbeafe" stroke="#2563eb" stroke-width="2"/><rect x="300" y="185" width="220" height="80" rx="8" fill="#dbeafe" fill-opacity="1" stroke="#2563eb" stroke-width="2"/><rect x="300" y="330" width="220" height="80" rx="8" fill="#dbeafe" fill-opacity="1" stroke="#2563eb" stroke-width="2"/><rect x="300" y="475" width="220" height="80" rx="8" fill="#dbeafe" fill-opacity="1" stroke="#2563eb" stroke-width="2"/><rect x="300" y="620" width="220" height="80" rx="8" fill="#dbeafe" fill-opacity="1" stroke="#2563eb" stroke-width="2"/><rect x="300" y="765" width="220" height="80" rx="8" fill="#dbeafe" fill-opacity="1" stroke="#2563eb" stroke-width="2"/><ellipse cx="410" cy="950" rx="110" ry="40" fill="#dbeafe" stroke="#2563eb" stroke-width="2"/><rect x="570" y="175" width="260" height="80" rx="8" fill="#f9fafb" fill-opacity="1" stroke="#475569" stroke-width="2"/><rect x="570" y="610" width="270" height="90" rx="8" fill="#f9fafb" fill-opacity="1" stroke="#475569" stroke-width="2"/><text x="410" y="75.24" text-anchor="middle" font-family="Arial,'Noto Sans KR',sans-serif" font-size="17" fill="#1f2937"><tspan x="410" dy="0">START</tspan><tspan x="410" dy="21.76">요청 대기 상태</tspan></text><text x="410" y="220.24" text-anchor="middle" font-family="Arial,'Noto Sans KR',sans-serif" font-size="17" fill="#1f2937"><tspan x="410" dy="0">1. 녹화 Trigger 처리 Node</tspan><tspan x="410" dy="21.76">오케스트레이터 고정 코드</tspan></text><text x="410" y="365.24" text-anchor="middle" font-family="Arial,'Noto Sans KR',sans-serif" font-size="17" fill="#1f2937"><tspan x="410" dy="0">2. 녹화 모달 실행 Node</tspan><tspan x="410" dy="21.76">UI 버튼과 동일한 로직</tspan></text><text x="410" y="510.24" text-anchor="middle" font-family="Arial,'Noto Sans KR',sans-serif" font-size="17" fill="#1f2937"><tspan x="410" dy="0">3. 녹화 백엔드 실행 Node</tspan><tspan x="410" dy="21.76">권한·실제 회의 상태 검사</tspan></text><text x="410" y="644.36" text-anchor="middle" font-family="Arial,'Noto Sans KR',sans-serif" font-size="17" fill="#1f2937"><tspan x="410" dy="0">4. 모달 결과 처리 Node</tspan><tspan x="410" dy="21.76">recording_state 갱신</tspan><tspan x="410" dy="21.76">종료 시 stop → none</tspan></text><text x="410" y="800.24" text-anchor="middle" font-family="Arial,'Noto Sans KR',sans-serif" font-size="17" fill="#1f2937"><tspan x="410" dy="0">5. Agent 상태 반영 Node</tspan><tspan x="410" dy="21.76">recording_modal_status 갱신</tspan></text><text x="410" y="945.24" text-anchor="middle" font-family="Arial,'Noto Sans KR',sans-serif" font-size="17" fill="#1f2937"><tspan x="410" dy="0">END</tspan><tspan x="410" dy="21.76">요청 완료 및 대기</tspan></text><text x="538" y="311" text-anchor="middle" font-family="Arial,'Noto Sans KR',sans-serif" font-size="14" fill="#f97316"><tspan x="538" dy="0">↻ 일시정지·재개 반복</tspan></text><text x="700" y="210.8" text-anchor="middle" font-family="Arial,'Noto Sans KR',sans-serif" font-size="15" fill="#1f2937"><tspan x="700" dy="0">명시적 Trigger만</tspan><tspan x="700" dy="19.2">고정 코드로 처리</tspan></text><text x="705" y="641.2" text-anchor="middle" font-family="Arial,'Noto Sans KR',sans-serif" font-size="15" fill="#1f2937"><tspan x="705" dy="0">모달 연결·실행 오류 시</tspan><tspan x="705" dy="19.2">recording_modal_status =</tspan><tspan x="705" dy="19.2">error</tspan></text></svg>