<svg xmlns="http://www.w3.org/2000/svg" width="845" height="920" viewBox="0 0 845 920"><defs><marker id="a6b7280" markerWidth="10" markerHeight="10" refX="8" refY="3" orient="auto"><path d="M0 0L0 6L9 3z" fill="#6b7280"/></marker><marker id="a2563eb" markerWidth="10" markerHeight="10" refX="8" refY="3" orient="auto"><path d="M0 0L0 6L9 3z" fill="#2563eb"/></marker><marker id="adc2626" markerWidth="10" markerHeight="10" refX="8" refY="3" orient="auto"><path d="M0 0L0 6L9 3z" fill="#dc2626"/></marker><marker id="a16a34a" markerWidth="10" markerHeight="10" refX="8" refY="3" orient="auto"><path d="M0 0L0 6L9 3z" fill="#16a34a"/></marker><marker id="ad97706" markerWidth="10" markerHeight="10" refX="8" refY="3" orient="auto"><path d="M0 0L0 6L9 3z" fill="#d97706"/></marker><marker id="af97316" markerWidth="10" markerHeight="10" refX="8" refY="3" orient="auto"><path d="M0 0L0 6L9 3z" fill="#f97316"/></marker><marker id="a0f766e" markerWidth="10" markerHeight="10" refX="8" refY="3" orient="auto"><path d="M0 0L0 6L9 3z" fill="#0f766e"/></marker><marker id="a475569" markerWidth="10" markerHeight="10" refX="8" refY="3" orient="auto"><path d="M0 0L0 6L9 3z" fill="#475569"/></marker><marker id="a1f2937" markerWidth="10" markerHeight="10" refX="8" refY="3" orient="auto"><path d="M0 0L0 6L9 3z" fill="#1f2937"/></marker></defs><rect width="100%" height="100%" fill="white"/><polyline points="500,90 500,130" fill="none" stroke="#6b7280" stroke-width="2" marker-end="url(#a6b7280)"/><polyline points="500,210 500,270" fill="none" stroke="#6b7280" stroke-width="2" marker-end="url(#a6b7280)"/><polyline points="500,350 500,410" fill="none" stroke="#6b7280" stroke-width="2" marker-end="url(#a6b7280)"/><polyline points="640,450 740,450 740,310 640,310" fill="none" stroke="#6b7280" stroke-width="2" marker-end="url(#a6b7280)"/><polyline points="360,310 270,310 270,590 360,590" fill="none" stroke="#6b7280" stroke-width="2" marker-end="url(#a6b7280)"/><polyline points="500,490 500,550" fill="none" stroke="#6b7280" stroke-width="2" marker-end="url(#a6b7280)"/><polyline points="500,630 500,680" fill="none" stroke="#6b7280" stroke-width="2" marker-end="url(#a6b7280)"/><polyline points="500,760 500,800" fill="none" stroke="#6b7280" stroke-width="2" marker-end="url(#a6b7280)"/><rect x="445" y="226" width="110" height="27.92" rx="8" fill="#f1f5f9" fill-opacity="0.92" stroke="transparent" stroke-width="1"/><rect x="440" y="366" width="120" height="27.92" rx="8" fill="#f1f5f9" fill-opacity="0.92" stroke="transparent" stroke-width="1"/><rect x="685" y="366" width="110" height="27.92" rx="8" fill="#f1f5f9" fill-opacity="0.92" stroke="transparent" stroke-width="1"/><rect x="215" y="436" width="110" height="27.92" rx="8" fill="#f1f5f9" fill-opacity="0.92" stroke="transparent" stroke-width="1"/><rect x="445" y="506" width="110" height="27.92" rx="8" fill="#f1f5f9" fill-opacity="0.92" stroke="transparent" stroke-width="1"/><rect x="445" y="641" width="110" height="27.92" rx="8" fill="#f1f5f9" fill-opacity="0.92" stroke="transparent" stroke-width="1"/><ellipse cx="500" cy="60" rx="110" ry="30" fill="#dbeafe" stroke="#2563eb" stroke-width="2"/><rect x="360" y="130" width="280" height="80" rx="8" fill="#dcfce7" fill-opacity="1" stroke="#16a34a" stroke-width="2"/><rect x="360" y="270" width="280" height="80" rx="8" fill="#dbeafe" fill-opacity="1" stroke="#2563eb" stroke-width="2"/><rect x="360" y="410" width="280" height="80" rx="8" fill="#dbeafe" fill-opacity="1" stroke="#2563eb" stroke-width="2"/><rect x="360" y="550" width="280" height="80" rx="8" fill="#dbeafe" fill-opacity="1" stroke="#2563eb" stroke-width="2"/><rect x="360" y="680" width="280" height="80" rx="8" fill="#dcfce7" fill-opacity="1" stroke="#16a34a" stroke-width="2"/><ellipse cx="500" cy="830" rx="140" ry="30" fill="#dbeafe" stroke="#2563eb" stroke-width="2"/><text x="500" y="66.12" text-anchor="middle" font-family="Arial,'Noto Sans KR',sans-serif" font-size="17" fill="#1f2937"><tspan x="500" dy="0">START</tspan></text><text x="500" y="165.24" text-anchor="middle" font-family="Arial,'Noto Sans KR',sans-serif" font-size="17" fill="#1f2937"><tspan x="500" dy="0">[상단바 모달]</tspan><tspan x="500" dy="21.76">recording_state = none</tspan></text><text x="500" y="294.36" text-anchor="middle" font-family="Arial,'Noto Sans KR',sans-serif" font-size="17" fill="#1f2937"><tspan x="500" dy="0">[상단바 모달]</tspan><tspan x="500" dy="21.76">recording_state =</tspan><tspan x="500" dy="21.76">recording</tspan></text><text x="500" y="445.24" text-anchor="middle" font-family="Arial,'Noto Sans KR',sans-serif" font-size="17" fill="#1f2937"><tspan x="500" dy="0">[상단바 모달]</tspan><tspan x="500" dy="21.76">recording_state = pause</tspan></text><text x="500" y="585.24" text-anchor="middle" font-family="Arial,'Noto Sans KR',sans-serif" font-size="17" fill="#1f2937"><tspan x="500" dy="0">[상단바 모달]</tspan><tspan x="500" dy="21.76">recording_state = stop</tspan></text><text x="500" y="715.24" text-anchor="middle" font-family="Arial,'Noto Sans KR',sans-serif" font-size="17" fill="#1f2937"><tspan x="500" dy="0">[상단바 모달]</tspan><tspan x="500" dy="21.76">recording_state = none</tspan></text><text x="500" y="836.12" text-anchor="middle" font-family="Arial,'Noto Sans KR',sans-serif" font-size="17" fill="#1f2937"><tspan x="500" dy="0">END · Agent 요청 대기</tspan></text><text x="500" y="245" text-anchor="middle" font-family="Arial,'Noto Sans KR',sans-serif" font-size="14" fill="#1f2937"><tspan x="500" dy="0">회의 시작 성공</tspan></text><text x="500" y="385" text-anchor="middle" font-family="Arial,'Noto Sans KR',sans-serif" font-size="14" fill="#1f2937"><tspan x="500" dy="0">회의 일시정지 성공</tspan></text><text x="740" y="385" text-anchor="middle" font-family="Arial,'Noto Sans KR',sans-serif" font-size="14" fill="#1f2937"><tspan x="740" dy="0">회의 재개 성공</tspan></text><text x="270" y="455" text-anchor="middle" font-family="Arial,'Noto Sans KR',sans-serif" font-size="14" fill="#1f2937"><tspan x="270" dy="0">회의 종료 성공</tspan></text><text x="500" y="525" text-anchor="middle" font-family="Arial,'Noto Sans KR',sans-serif" font-size="14" fill="#1f2937"><tspan x="500" dy="0">회의 종료 성공</tspan></text><text x="500" y="660" text-anchor="middle" font-family="Arial,'Noto Sans KR',sans-serif" font-size="14" fill="#1f2937"><tspan x="500" dy="0">종료 처리 완료</tspan></text></svg>