<svg xmlns="http://www.w3.org/2000/svg" width="1185" height="2625" viewBox="0 0 1185 2625"><defs><marker id="m0" markerWidth="10" markerHeight="10" refX="8" refY="3" orient="auto"><path d="M0 0L0 6L9 3z" fill="#6b7280" /></marker><marker id="m1" markerWidth="10" markerHeight="10" refX="8" refY="3" orient="auto"><path d="M0 0L0 6L9 3z" fill="#7c3aed" /></marker><marker id="m2" markerWidth="10" markerHeight="10" refX="8" refY="3" orient="auto"><path d="M0 0L0 6L9 3z" fill="#fb923c" /></marker></defs><rect width="100%" height="100%" fill="white" /><rect x="120" y="120" width="960" height="520" rx="8" stroke="#2563eb" fill="#eff6ff" stroke-width="2" opacity="1" /><rect x="120" y="760" width="960" height="315" rx="8" stroke="#dc2626" fill="#fff1f2" stroke-width="2" opacity="1" /><rect x="70" y="1150" width="1060" height="1085" rx="8" stroke="#2563eb" fill="#eff6ff" stroke-width="2" opacity="1" /><rect x="120" y="2315" width="960" height="190" rx="8" stroke="#dc2626" fill="#fff1f2" stroke-width="2" opacity="1" /><polyline points="810,220 770,220" fill="none" stroke="#7c3aed" stroke-width="2" opacity="1" stroke-dasharray="9 6" /><polyline points="600,260 600,400" fill="none" stroke="#6b7280" stroke-width="2" opacity="1" marker-end="url(#m0)" /><polyline points="600,480 600,515" fill="none" stroke="#6b7280" stroke-width="2" opacity="1" marker-end="url(#m0)" /><polyline points="600,625 600,815" fill="none" stroke="#6b7280" stroke-width="2" opacity="1" marker-end="url(#m0)" /><polyline points="600,905 600,955 250,955 250,1215" fill="none" stroke="#6b7280" stroke-width="2" opacity="1" marker-end="url(#m0)" /><polyline points="600,905 600,1215" fill="none" stroke="#6b7280" stroke-width="2" opacity="1" marker-end="url(#m0)" /><polyline points="600,905 600,955 950,955 950,1215" fill="none" stroke="#6b7280" stroke-width="2" opacity="1" marker-end="url(#m0)" /><polyline points="600,1305 600,1365" fill="none" stroke="#6b7280" stroke-width="2" opacity="1" marker-end="url(#m0)" /><polyline points="950,1305 950,1335 600,1335 600,1365" fill="none" stroke="#6b7280" stroke-width="2" opacity="1" marker-end="url(#m0)" /><polyline points="540,1475 540,1505 390,1505 390,1535" fill="none" stroke="#6b7280" stroke-width="2" opacity="1" marker-end="url(#m0)" /><polyline points="660,1475 660,1505 810,1505 810,1535" fill="none" stroke="#6b7280" stroke-width="2" opacity="1" marker-end="url(#m0)" /><polyline points="810,1615 810,1645 680,1645 680,1675" fill="none" stroke="#6b7280" stroke-width="2" opacity="1" marker-end="url(#m0)" /><polyline points="810,1615 810,1645 940,1645 940,1675" fill="none" stroke="#6b7280" stroke-width="2" opacity="1" marker-end="url(#m0)" /><polyline points="390,1615 390,1780" fill="none" stroke="#6b7280" stroke-width="2" opacity="1" /><polyline points="680,1750 680,1780" fill="none" stroke="#6b7280" stroke-width="2" opacity="1" /><polyline points="940,1750 940,1780" fill="none" stroke="#6b7280" stroke-width="2" opacity="1" /><polyline points="390,1780 940,1780" fill="none" stroke="#6b7280" stroke-width="2" opacity="1" /><polyline points="630,1780 630,1815" fill="none" stroke="#6b7280" stroke-width="2" opacity="1" marker-end="url(#m0)" /><polyline points="730,570 1110,570 1110,1915 950,1915 950,1955" fill="none" stroke="#6b7280" stroke-width="2" opacity="1" marker-end="url(#m0)" /><polyline points="250,1305 250,1955" fill="none" stroke="#6b7280" stroke-width="2" opacity="1" marker-end="url(#m0)" /><polyline points="630,1895 630,1915 600,1915 600,1955" fill="none" stroke="#6b7280" stroke-width="2" opacity="1" marker-end="url(#m0)" /><polyline points="250,2045 250,2115 600,2115 600,2370" fill="none" stroke="#6b7280" stroke-width="2" opacity="1" marker-end="url(#m0)" /><polyline points="600,2045 600,2370" fill="none" stroke="#6b7280" stroke-width="2" opacity="1" marker-end="url(#m0)" /><polyline points="950,2045 950,2115 600,2115 600,2370" fill="none" stroke="#6b7280" stroke-width="2" opacity="1" marker-end="url(#m0)" /><polyline points="600,2460 600,2605" fill="none" stroke="#6b7280" stroke-width="2" opacity="1" marker-end="url(#m0)" /><rect x="350" y="180" width="420" height="80" rx="8" stroke="#2563eb" fill="#eff6ff" stroke-width="2" opacity="1" /><rect x="810" y="160" width="230" height="120" rx="8" stroke="#7c3aed" fill="#f3e8ff" stroke-width="2" opacity="1" stroke-dasharray="9 6" /><rect x="532" y="74" width="136" height="32" rx="8" stroke="none" fill="#f1f5f9" stroke-width="2" opacity="1" /><rect x="390" y="400" width="420" height="80" rx="8" stroke="#475569" fill="#f8fafc" stroke-width="2" opacity="1" /><polygon points="600,515 730,570 600,625 470,570" stroke="#475569" fill="#f8fafc" stroke-width="2" opacity="1" /><rect x="390" y="815" width="420" height="90" rx="8" stroke="#dc2626" fill="#fff1f2" stroke-width="2" opacity="1" /><rect x="540" y="739" width="120" height="32" rx="8" stroke="none" fill="#f1f5f9" stroke-width="2" opacity="1" /><rect x="130" y="1215" width="240" height="90" rx="8" stroke="#2563eb" fill="#eff6ff" stroke-width="2" opacity="1" /><rect x="480" y="1215" width="240" height="90" rx="8" stroke="#2563eb" fill="#eff6ff" stroke-width="2" opacity="1" /><rect x="830" y="1215" width="240" height="90" rx="8" stroke="#d97706" fill="#fef3c7" stroke-width="2" opacity="1" /><rect x="210" y="939" width="120" height="32" rx="8" stroke="none" fill="#f1f5f9" stroke-width="2" opacity="1" /><rect x="580" y="939" width="120" height="32" rx="8" stroke="none" fill="#f1f5f9" stroke-width="2" opacity="1" /><rect x="870" y="939" width="120" height="32" rx="8" stroke="none" fill="#f1f5f9" stroke-width="2" opacity="1" /><polygon points="600,1365 720,1420 600,1475 480,1420" stroke="#2563eb" fill="#eff6ff" stroke-width="2" opacity="1" /><rect x="750" y="1307" width="120" height="32" rx="8" stroke="none" fill="#f1f5f9" stroke-width="2" opacity="1" /><rect x="270" y="1535" width="240" height="80" rx="8" stroke="#2563eb" fill="#eff6ff" stroke-width="2" opacity="1" /><rect x="690" y="1535" width="240" height="80" rx="8" stroke="#d97706" fill="#fef3c7" stroke-width="2" opacity="1" /><rect x="370" y="1477" width="120" height="32" rx="8" stroke="none" fill="#f1f5f9" stroke-width="2" opacity="1" /><rect x="710" y="1477" width="120" height="32" rx="8" stroke="none" fill="#f1f5f9" stroke-width="2" opacity="1" /><rect x="570" y="1675" width="220" height="75" rx="8" stroke="#2563eb" fill="#eff6ff" stroke-width="2" opacity="1" /><rect x="830" y="1675" width="220" height="75" rx="8" stroke="#2563eb" fill="#eff6ff" stroke-width="2" opacity="1" /><rect x="660" y="1617" width="120" height="32" rx="8" stroke="none" fill="#f1f5f9" stroke-width="2" opacity="1" /><rect x="840" y="1617" width="120" height="32" rx="8" stroke="none" fill="#f1f5f9" stroke-width="2" opacity="1" /><rect x="480" y="1815" width="300" height="80" rx="8" stroke="#2563eb" fill="#eff6ff" stroke-width="2" opacity="1" /><rect x="100" y="1955" width="300" height="90" rx="8" stroke="#2563eb" fill="#eff6ff" stroke-width="2" opacity="1" /><rect x="450" y="1955" width="300" height="90" rx="8" stroke="#2563eb" fill="#eff6ff" stroke-width="2" opacity="1" /><rect x="800" y="1955" width="300" height="90" rx="8" stroke="#2563eb" fill="#eff6ff" stroke-width="2" opacity="1" /><rect x="960" y="579" width="120" height="32" rx="8" stroke="none" fill="#f1f5f9" stroke-width="2" opacity="1" /><rect x="390" y="2370" width="420" height="90" rx="8" stroke="#dc2626" fill="#fff1f2" stroke-width="2" opacity="1" /><text x="136" y="146" text-anchor="start" font-family="Arial,'Noto Sans KR',sans-serif" font-size="16" fill="#2563eb" opacity="1"><tspan x="136" dy="0">하네스 담당 · Tool 인터페이스 호출·권한 필터·후보 검색</tspan></text><text x="560" y="205" text-anchor="middle" font-family="Arial,'Noto Sans KR',sans-serif" font-size="17" fill="#1f2937" opacity="1"><tspan x="560" dy="0">Tool 1 인터페이스 호출</tspan><tspan x="560" dy="21.76">회의록 검색·선택</tspan></text><text x="925" y="182" text-anchor="middle" font-family="Arial,'Noto Sans KR',sans-serif" font-size="14" fill="#5b21b6" opacity="1"><tspan x="925" dy="0">Tool 1은 실행 인터페이스</tspan><tspan x="925" dy="17.92">권한 필터는 백엔드가 담당</tspan></text><text x="600" y="92" text-anchor="middle" font-family="Arial,'Noto Sans KR',sans-serif" font-size="14" fill="#1f2937" opacity="1"><tspan x="600" dy="0">Tool 1 필요</tspan></text><text x="600" y="425" text-anchor="middle" font-family="Arial,'Noto Sans KR',sans-serif" font-size="17" fill="#1f2937" opacity="1"><tspan x="600" dy="0">사용자 권한 필터·후보 검색</tspan></text><text x="600" y="575" text-anchor="middle" font-family="Arial,'Noto Sans KR',sans-serif" font-size="17" fill="#1f2937" opacity="1"><tspan x="600" dy="0">백엔드 실행 결과</tspan></text><text x="136" y="786" text-anchor="start" font-family="Arial,'Noto Sans KR',sans-serif" font-size="16" fill="#dc2626" opacity="1"><tspan x="136" dy="0">LLM 담당 · 검색 결과 해석</tspan></text><text x="600" y="840" text-anchor="middle" font-family="Arial,'Noto Sans KR',sans-serif" font-size="17" fill="#1f2937" opacity="1"><tspan x="600" dy="0">접근 가능한 후보 수에 따라</tspan><tspan x="600" dy="21.76">다음 응답·경로 판단</tspan></text><text x="600" y="757" text-anchor="middle" font-family="Arial,'Noto Sans KR',sans-serif" font-size="14" fill="#1f2937" opacity="1"><tspan x="600" dy="0">성공 결과</tspan></text><text x="86" y="1176" text-anchor="start" font-family="Arial,'Noto Sans KR',sans-serif" font-size="16" fill="#2563eb" opacity="1"><tspan x="86" dy="0">하네스 담당 · 선택과 authorized_meeting_ids 반영</tspan></text><text x="250" y="1240" text-anchor="middle" font-family="Arial,'Noto Sans KR',sans-serif" font-size="17" fill="#1f2937" opacity="1"><tspan x="250" dy="0">0개</tspan><tspan x="250" dy="21.76">검색 결과 없음·기존 ID 유지</tspan></text><text x="600" y="1240" text-anchor="middle" font-family="Arial,'Noto Sans KR',sans-serif" font-size="17" fill="#1f2937" opacity="1"><tspan x="600" dy="0">후보 ID</tspan><tspan x="600" dy="21.76">자동 선택·검증</tspan></text><text x="950" y="1240" text-anchor="middle" font-family="Arial,'Noto Sans KR',sans-serif" font-size="17" fill="#1f2937" opacity="1"><tspan x="950" dy="0">2개 이상 HITL</tspan><tspan x="950" dy="21.76">하나 이상 선택</tspan></text><text x="270" y="957" text-anchor="middle" font-family="Arial,'Noto Sans KR',sans-serif" font-size="14" fill="#1f2937" opacity="1"><tspan x="270" dy="0">0개</tspan></text><text x="640" y="957" text-anchor="middle" font-family="Arial,'Noto Sans KR',sans-serif" font-size="14" fill="#1f2937" opacity="1"><tspan x="640" dy="0">1개</tspan></text><text x="930" y="957" text-anchor="middle" font-family="Arial,'Noto Sans KR',sans-serif" font-size="14" fill="#1f2937" opacity="1"><tspan x="930" dy="0">2개 이상</tspan></text><text x="600" y="1425" text-anchor="middle" font-family="Arial,'Noto Sans KR',sans-serif" font-size="17" fill="#1f2937" opacity="1"><tspan x="600" dy="0">기존 ID가 있는가?</tspan></text><text x="810" y="1325" text-anchor="middle" font-family="Arial,'Noto Sans KR',sans-serif" font-size="14" fill="#1f2937" opacity="1"><tspan x="810" dy="0">선택 완료</tspan></text><text x="390" y="1560" text-anchor="middle" font-family="Arial,'Noto Sans KR',sans-serif" font-size="17" fill="#1f2937" opacity="1"><tspan x="390" dy="0">새 ID 집합 설정</tspan></text><text x="810" y="1560" text-anchor="middle" font-family="Arial,'Noto Sans KR',sans-serif" font-size="17" fill="#1f2937" opacity="1"><tspan x="810" dy="0">HITL</tspan><tspan x="810" dy="21.76">추가 또는 대체</tspan></text><text x="430" y="1495" text-anchor="middle" font-family="Arial,'Noto Sans KR',sans-serif" font-size="14" fill="#1f2937" opacity="1"><tspan x="430" dy="0">없음</tspan></text><text x="770" y="1495" text-anchor="middle" font-family="Arial,'Noto Sans KR',sans-serif" font-size="14" fill="#1f2937" opacity="1"><tspan x="770" dy="0">있음</tspan></text><text x="680" y="1700" text-anchor="middle" font-family="Arial,'Noto Sans KR',sans-serif" font-size="17" fill="#1f2937" opacity="1"><tspan x="680" dy="0">기존·새 ID</tspan><tspan x="680" dy="21.76">중복 없이 병합</tspan></text><text x="940" y="1700" text-anchor="middle" font-family="Arial,'Noto Sans KR',sans-serif" font-size="17" fill="#1f2937" opacity="1"><tspan x="940" dy="0">새 ID 집합으로 대체</tspan></text><text x="720" y="1635" text-anchor="middle" font-family="Arial,'Noto Sans KR',sans-serif" font-size="14" fill="#1f2937" opacity="1"><tspan x="720" dy="0">추가</tspan></text><text x="900" y="1635" text-anchor="middle" font-family="Arial,'Noto Sans KR',sans-serif" font-size="14" fill="#1f2937" opacity="1"><tspan x="900" dy="0">대체</tspan></text><text x="630" y="1840" text-anchor="middle" font-family="Arial,'Noto Sans KR',sans-serif" font-size="17" fill="#1f2937" opacity="1"><tspan x="630" dy="0">authorized_meeting_ids 갱신</tspan></text><text x="250" y="1980" text-anchor="middle" font-family="Arial,'Noto Sans KR',sans-serif" font-size="17" fill="#1f2937" opacity="1"><tspan x="250" dy="0">검색 결과 없음·기존 ID 유지</tspan><tspan x="250" dy="21.76">정형화 컨텍스트</tspan></text><text x="600" y="1980" text-anchor="middle" font-family="Arial,'Noto Sans KR',sans-serif" font-size="17" fill="#1f2937" opacity="1"><tspan x="600" dy="0">새 집합·추가·대체 결과</tspan><tspan x="600" dy="21.76">정형화 컨텍스트</tspan></text><text x="950" y="1980" text-anchor="middle" font-family="Arial,'Noto Sans KR',sans-serif" font-size="17" fill="#1f2937" opacity="1"><tspan x="950" dy="0">거부·실패 결과</tspan><tspan x="950" dy="21.76">정형화 컨텍스트</tspan></text><text x="1020" y="597" text-anchor="middle" font-family="Arial,'Noto Sans KR',sans-serif" font-size="14" fill="#1f2937" opacity="1"><tspan x="1020" dy="0">거부·실패</tspan></text><text x="136" y="2341" text-anchor="start" font-family="Arial,'Noto Sans KR',sans-serif" font-size="16" fill="#dc2626" opacity="1"><tspan x="136" dy="0">LLM 담당 · 검색 결과 응답 생성</tspan></text><text x="600" y="2395" text-anchor="middle" font-family="Arial,'Noto Sans KR',sans-serif" font-size="17" fill="#1f2937" opacity="1"><tspan x="600" dy="0">검색 결과·추가·대체·실패에 맞는</tspan><tspan x="600" dy="21.76">검색 응답 생성</tspan></text><rect x="35" y="35" width="1130" height="2495" rx="8" stroke="#f97316" fill="none" stroke-width="2" opacity="1" /><rect x="50" y="5" width="340" height="24" rx="8" stroke="#f97316" fill="#fff7ed" stroke-width="2" opacity="1" /><rect x="785" y="43" width="350" height="30" rx="8" stroke="#f97316" fill="#fff7ed" stroke-width="1" opacity="1" /><rect x="70" y="1095" width="390" height="30" rx="8" stroke="#f97316" fill="#fff7ed" stroke-width="1" opacity="1" /><rect x="70" y="2260" width="370" height="30" rx="8" stroke="#f97316" fill="#fff7ed" stroke-width="1" opacity="1" /><text x="790" y="63" text-anchor="start" font-family="Arial,'Noto Sans KR',sans-serif" font-size="15" fill="#ea580c" opacity="1"><tspan x="790" dy="0">S1 · 후보 검색·결과 해석 Node</tspan></text><text x="75" y="1115" text-anchor="start" font-family="Arial,'Noto Sans KR',sans-serif" font-size="15" fill="#ea580c" opacity="1"><tspan x="75" dy="0">S2 · 후보 수별 선택·ID 반영 Node</tspan></text><text x="75" y="2280" text-anchor="start" font-family="Arial,'Noto Sans KR',sans-serif" font-size="15" fill="#ea580c" opacity="1"><tspan x="75" dy="0">S3 · 검색 결과 답변 생성 Node</tspan></text><text x="130" y="1198" text-anchor="start" font-family="Arial,'Noto Sans KR',sans-serif" font-size="13" fill="#ea580c" opacity="1"><tspan x="130" dy="0">S2-A · 후보 0개</tspan></text><text x="490" y="1198" text-anchor="start" font-family="Arial,'Noto Sans KR',sans-serif" font-size="13" fill="#ea580c" opacity="1"><tspan x="490" dy="0">S2-B · 후보 1개</tspan></text><text x="835" y="1198" text-anchor="start" font-family="Arial,'Noto Sans KR',sans-serif" font-size="13" fill="#ea580c" opacity="1"><tspan x="835" dy="0">S2-C · 후보 2개 이상</tspan></text><text x="56" y="21" text-anchor="start" font-family="Arial,'Noto Sans KR',sans-serif" font-size="13" fill="#f97316" opacity="1"><tspan x="56" dy="0">상위 State 범위 · search (SEARCH_RESPONSE_READY까지 유지)</tspan></text></svg>