<svg xmlns="http://www.w3.org/2000/svg" width="1185" height="2015" viewBox="0 0 1185 2015"><defs><marker id="m0" markerWidth="10" markerHeight="10" refX="8" refY="3" orient="auto"><path d="M0 0L0 6L9 3z" fill="#6b7280" /></marker><marker id="m1" markerWidth="10" markerHeight="10" refX="8" refY="3" orient="auto"><path d="M0 0L0 6L9 3z" fill="#7c3aed" /></marker><marker id="m2" markerWidth="10" markerHeight="10" refX="8" refY="3" orient="auto"><path d="M0 0L0 6L9 3z" fill="#fb923c" /></marker></defs><rect width="100%" height="100%" fill="white" /><rect x="90" y="120" width="1020" height="900" rx="8" stroke="#2563eb" fill="#eff6ff" stroke-width="2" opacity="1" /><rect x="70" y="1120" width="1060" height="390" rx="8" stroke="#2563eb" fill="#eff6ff" stroke-width="2" opacity="1" /><rect x="120" y="1610" width="960" height="290" rx="8" stroke="#dc2626" fill="#fff1f2" stroke-width="2" opacity="1" /><polyline points="535,290 535,310 415,310 415,330" fill="none" stroke="#6b7280" stroke-width="2" opacity="1" marker-end="url(#m0)" /><polyline points="665,290 665,310 930,310 930,1180" fill="none" stroke="#6b7280" stroke-width="2" opacity="1" marker-end="url(#m0)" /><polyline points="415,410 415,460 600,460 600,610" fill="none" stroke="#6b7280" stroke-width="2" opacity="1" marker-end="url(#m0)" /><polyline points="600,700 600,760" fill="none" stroke="#6b7280" stroke-width="2" opacity="1" marker-end="url(#m0)" /><polyline points="320,660 360,660" fill="none" stroke="#7c3aed" stroke-width="2" opacity="1" stroke-dasharray="9 6" /><polyline points="535,870 535,1025 280,1025 280,1180" fill="none" stroke="#6b7280" stroke-width="2" opacity="1" marker-end="url(#m0)" /><polyline points="665,870 665,1025 600,1025 600,1180" fill="none" stroke="#6b7280" stroke-width="2" opacity="1" marker-end="url(#m0)" /><polyline points="280,1270 280,1320" fill="none" stroke="#6b7280" stroke-width="2" opacity="1" /><polyline points="600,1270 600,1320" fill="none" stroke="#6b7280" stroke-width="2" opacity="1" /><polyline points="930,1270 930,1320" fill="none" stroke="#6b7280" stroke-width="2" opacity="1" /><polyline points="280,1320 930,1320" fill="none" stroke="#6b7280" stroke-width="2" opacity="1" /><polyline points="600,1320 600,1360" fill="none" stroke="#6b7280" stroke-width="2" opacity="1" marker-end="url(#m0)" /><polyline points="600,1450 600,1765" fill="none" stroke="#6b7280" stroke-width="2" opacity="1" marker-end="url(#m0)" /><polyline points="600,1855 600,1995" fill="none" stroke="#6b7280" stroke-width="2" opacity="1" marker-end="url(#m0)" /><polygon points="600,180 730,235 600,290 470,235" stroke="#2563eb" fill="#eff6ff" stroke-width="2" opacity="1" /><rect x="250" y="330" width="330" height="80" rx="8" stroke="#2563eb" fill="#eff6ff" stroke-width="2" opacity="1" /><rect x="780" y="1180" width="300" height="80" rx="8" stroke="#2563eb" fill="#eff6ff" stroke-width="2" opacity="1" /><rect x="532" y="69" width="136" height="32" rx="8" stroke="none" fill="#f1f5f9" stroke-width="2" opacity="1" /><rect x="395" y="282" width="120" height="32" rx="8" stroke="none" fill="#f1f5f9" stroke-width="2" opacity="1" /><rect x="745" y="282" width="120" height="32" rx="8" stroke="none" fill="#f1f5f9" stroke-width="2" opacity="1" /><rect x="360" y="610" width="480" height="90" rx="8" stroke="#475569" fill="#f8fafc" stroke-width="2" opacity="1" /><polygon points="600,760 730,815 600,870 470,815" stroke="#475569" fill="#f8fafc" stroke-width="2" opacity="1" /><rect x="100" y="600" width="220" height="120" rx="8" stroke="#7c3aed" fill="#f3e8ff" stroke-width="2" opacity="1" stroke-dasharray="9 6" /><rect x="140" y="1180" width="280" height="90" rx="8" stroke="#2563eb" fill="#eff6ff" stroke-width="2" opacity="1" /><rect x="460" y="1180" width="280" height="90" rx="8" stroke="#2563eb" fill="#eff6ff" stroke-width="2" opacity="1" /><rect x="420" y="1360" width="360" height="90" rx="8" stroke="#2563eb" fill="#eff6ff" stroke-width="2" opacity="1" /><rect x="300" y="890" width="120" height="32" rx="8" stroke="none" fill="#f1f5f9" stroke-width="2" opacity="1" /><rect x="660" y="890" width="120" height="32" rx="8" stroke="none" fill="#f1f5f9" stroke-width="2" opacity="1" /><rect x="390" y="1765" width="420" height="90" rx="8" stroke="#dc2626" fill="#fff1f2" stroke-width="2" opacity="1" /><text x="106" y="146" text-anchor="start" font-family="Arial,'Noto Sans KR',sans-serif" font-size="16" fill="#2563eb" opacity="1"><tspan x="106" dy="0">하네스 담당 · 허용 ID 확인·Tool 인터페이스 호출·허용 목록 검사·원문 조회</tspan></text><text x="600" y="240" text-anchor="middle" font-family="Arial,'Noto Sans KR',sans-serif" font-size="17" fill="#1f2937" opacity="1"><tspan x="600" dy="0">허용된 회의록 ID가 있는가?</tspan></text><text x="415" y="355" text-anchor="middle" font-family="Arial,'Noto Sans KR',sans-serif" font-size="17" fill="#1f2937" opacity="1"><tspan x="415" dy="0">Tool 2 인터페이스 호출</tspan><tspan x="415" dy="21.76">허용된 ID의 원문 조회</tspan></text><text x="930" y="1205" text-anchor="middle" font-family="Arial,'Noto Sans KR',sans-serif" font-size="17" fill="#1f2937" opacity="1"><tspan x="930" dy="0">회의록 선택 필요 결과</tspan><tspan x="930" dy="21.76">정형화 컨텍스트</tspan></text><text x="455" y="300" text-anchor="middle" font-family="Arial,'Noto Sans KR',sans-serif" font-size="14" fill="#1f2937" opacity="1"><tspan x="455" dy="0">있음</tspan></text><text x="805" y="300" text-anchor="middle" font-family="Arial,'Noto Sans KR',sans-serif" font-size="14" fill="#1f2937" opacity="1"><tspan x="805" dy="0">없음</tspan></text><text x="600" y="635" text-anchor="middle" font-family="Arial,'Noto Sans KR',sans-serif" font-size="17" fill="#1f2937" opacity="1"><tspan x="600" dy="0">요청 ID 허용 목록 포함 여부 검사</tspan><tspan x="600" dy="21.76">회의록 원문 조회</tspan></text><text x="600" y="820" text-anchor="middle" font-family="Arial,'Noto Sans KR',sans-serif" font-size="17" fill="#1f2937" opacity="1"><tspan x="600" dy="0">Tool 실행 결과</tspan></text><text x="210" y="622" text-anchor="middle" font-family="Arial,'Noto Sans KR',sans-serif" font-size="14" fill="#5b21b6" opacity="1"><tspan x="210" dy="0">Tool 2는 실행 인터페이스</tspan><tspan x="210" dy="17.92">허용된 ID만 조회 가능</tspan></text><text x="86" y="1146" text-anchor="start" font-family="Arial,'Noto Sans KR',sans-serif" font-size="16" fill="#2563eb" opacity="1"><tspan x="86" dy="0">하네스 담당 · 실행 결과와 Model Context 조립</tspan></text><text x="280" y="1205" text-anchor="middle" font-family="Arial,'Noto Sans KR',sans-serif" font-size="17" fill="#1f2937" opacity="1"><tspan x="280" dy="0">실행 중 문서 데이터</tspan><tspan x="280" dy="21.76">회의록 원문</tspan></text><text x="600" y="1205" text-anchor="middle" font-family="Arial,'Noto Sans KR',sans-serif" font-size="17" fill="#1f2937" opacity="1"><tspan x="600" dy="0">Tool 거부·실패 결과</tspan><tspan x="600" dy="21.76">정형화 컨텍스트</tspan></text><text x="600" y="1385" text-anchor="middle" font-family="Arial,'Noto Sans KR',sans-serif" font-size="17" fill="#1f2937" opacity="1"><tspan x="600" dy="0">시스템 지시 + 원문 + ScratchPad</tspan><tspan x="600" dy="21.76">최종 Model Context 조립</tspan></text><text x="360" y="908" text-anchor="middle" font-family="Arial,'Noto Sans KR',sans-serif" font-size="14" fill="#1f2937" opacity="1"><tspan x="360" dy="0">성공</tspan></text><text x="720" y="908" text-anchor="middle" font-family="Arial,'Noto Sans KR',sans-serif" font-size="14" fill="#1f2937" opacity="1"><tspan x="720" dy="0">거부·실패</tspan></text><text x="136" y="1736" text-anchor="start" font-family="Arial,'Noto Sans KR',sans-serif" font-size="16" fill="#dc2626" opacity="1"><tspan x="136" dy="0">LLM 담당 · 질의 결과 응답 생성</tspan></text><text x="600" y="1790" text-anchor="middle" font-family="Arial,'Noto Sans KR',sans-serif" font-size="17" fill="#1f2937" opacity="1"><tspan x="600" dy="0">원문·선택 필요·실패 결과에 맞는</tspan><tspan x="600" dy="21.76">질의 응답 생성</tspan></text><rect x="35" y="35" width="1130" height="1885" rx="8" stroke="#f97316" fill="none" stroke-width="2" opacity="1" /><rect x="50" y="5" width="370" height="24" rx="8" stroke="#f97316" fill="#fff7ed" stroke-width="2" opacity="1" /><rect x="785" y="43" width="350" height="30" rx="8" stroke="#f97316" fill="#fff7ed" stroke-width="1" opacity="1" /><rect x="70" y="1065" width="530" height="30" rx="8" stroke="#f97316" fill="#fff7ed" stroke-width="1" opacity="1" /><rect x="70" y="1555" width="370" height="30" rx="8" stroke="#f97316" fill="#fff7ed" stroke-width="1" opacity="1" /><text x="790" y="63" text-anchor="start" font-family="Arial,'Noto Sans KR',sans-serif" font-size="15" fill="#ea580c" opacity="1"><tspan x="790" dy="0">Q1 · 원문 조회·실행 결과 Node</tspan></text><text x="75" y="1085" text-anchor="start" font-family="Arial,'Noto Sans KR',sans-serif" font-size="15" fill="#ea580c" opacity="1"><tspan x="75" dy="0">Q2-A·Q2-B·Q2-C · 결과별 Model Context 조립 Node</tspan></text><text x="75" y="1575" text-anchor="start" font-family="Arial,'Noto Sans KR',sans-serif" font-size="15" fill="#ea580c" opacity="1"><tspan x="75" dy="0">Q3 · 회의록 답변 생성 Node</tspan></text><text x="800" y="1173" text-anchor="middle" font-family="Arial,'Noto Sans KR',sans-serif" font-size="13" fill="#ea580c" opacity="1"><tspan x="800" dy="0">Q2-A · 회의록 선택 필요</tspan></text><text x="120" y="1173" text-anchor="start" font-family="Arial,'Noto Sans KR',sans-serif" font-size="13" fill="#ea580c" opacity="1"><tspan x="120" dy="0">Q2-B · 원문 조회 성공</tspan></text><text x="450" y="1173" text-anchor="start" font-family="Arial,'Noto Sans KR',sans-serif" font-size="13" fill="#ea580c" opacity="1"><tspan x="450" dy="0">Q2-C · Tool 거부·실패</tspan></text><text x="56" y="21" text-anchor="start" font-family="Arial,'Noto Sans KR',sans-serif" font-size="13" fill="#f97316" opacity="1"><tspan x="56" dy="0">상위 State 범위 · question (QUESTION_RESPONSE_READY까지 유지)</tspan></text><text x="600" y="87" text-anchor="middle" font-family="Arial,'Noto Sans KR',sans-serif" font-size="14" fill="#1f2937" opacity="1"><tspan x="600" dy="0">Tool 2 필요</tspan></text></svg>