<svg xmlns="http://www.w3.org/2000/svg" width="1000" height="300"><defs><marker id="a" markerWidth="8" markerHeight="6" refX="7" refY="3" orient="auto"><path d="M0,0 L8,3 L0,6z" fill="#506d85"/></marker><style>text{font-family:Arial,sans-serif;fill:#17324d}.h{font-size:22px;font-weight:bold}.s{font-size:16px}.n{font-size:13px;fill:#526578}.b{fill:#fff;stroke:#9bb8ce;stroke-width:2}.i{fill:#e7f4ff;stroke:#0a6ed1;stroke-width:2}.l{stroke:#506d85;stroke-width:3;marker-end:url(#a)}</style></defs><rect width="1000" height="300" fill="#f7fafc"/><text x="30" y="35" class="h">Direct OData vs Integration Suite</text><text x="40" y="75" class="h">Direct OData</text><rect x="40" y="95" width="200" height="65" rx="8" class="b"/><text x="74" y="132" class="s">Consumer App</text><line x1="240" y1="127" x2="410" y2="127" class="l"/><rect x="410" y="95" width="240" height="65" rx="8" class="b"/><text x="450" y="132" class="s">S/4HANA OData</text><text x="710" y="132" class="n">Simple, one consumer</text><line x1="25" y1="190" x2="975" y2="190" stroke="#d4e1ea" stroke-width="2"/><text x="40" y="225" class="h">Through IS</text><rect x="40" y="240" width="170" height="38" rx="7" class="b"/><text x="66" y="265" class="s">Consumer App</text><line x1="210" y1="259" x2="330" y2="259" class="l"/><rect x="330" y="230" width="300" height="55" rx="8" class="i"/><text x="383" y="252" class="s">Integration Suite</text><text x="365" y="273" class="n">map / route / govern / monitor</text><line x1="630" y1="259" x2="750" y2="259" class="l"/><rect x="750" y="240" width="190" height="38" rx="7" class="b"/><text x="778" y="265" class="s">S/4HANA</text></svg>
