<svg xmlns="http://www.w3.org/2000/svg" width="1000" height="280"><defs><marker id="a" markerWidth="8" markerHeight="6" refX="7" refY="3" orient="auto"><path d="M0,0 L8,3 L0,6z" fill="#506d85"/></marker><style>text{font-family:Arial,sans-serif;fill:#17324d}.h{font-size:22px;font-weight:bold}.s{font-size:16px}.n{font-size:13px;fill:#526578}.b{fill:#fff;stroke:#9bb8ce;stroke-width:2}.i{fill:#e7f4ff;stroke:#0a6ed1;stroke-width:2}.l{stroke:#506d85;stroke-width:3;marker-end:url(#a)}</style></defs><rect width="1000" height="280" fill="#f7fafc"/><text x="30" y="35" class="h">Why an Integration Layer?</text><text x="40" y="76" class="h">Without IS</text><rect x="40" y="95" width="140" height="55" rx="8" class="b"/><text x="76" y="128" class="s">App A</text><rect x="40" y="165" width="140" height="55" rx="8" class="b"/><text x="76" y="198" class="s">App B</text><line x1="180" y1="120" x2="350" y2="90" class="l"/><line x1="180" y1="192" x2="350" y2="150" class="l"/><text x="365" y="95" class="s">S/4HANA</text><text x="365" y="155" class="s">SaaS / Partner</text><text x="545" y="140" class="n">Repeated connection and mapping logic</text><text x="40" y="252" class="h">With IS</text><rect x="250" y="225" width="250" height="46" rx="8" class="i"/><text x="307" y="254" class="s">Integration Suite</text><line x1="180" y1="246" x2="250" y2="246" class="l"/><line x1="500" y1="235" x2="670" y2="215" class="l"/><line x1="500" y1="255" x2="670" y2="270" class="l"/><text x="685" y="220" class="s">S/4HANA</text><text x="685" y="275" class="s">SaaS / Partner</text></svg>
