<svg xmlns="http://www.w3.org/2000/svg" width="1000" height="280"><defs><marker id="a" markerWidth="8" markerHeight="6" refX="7" refY="3" orient="auto"><path d="M0,0 L8,3 L0,6z" fill="#506d85"/></marker><style>text{font-family:Arial,sans-serif;fill:#17324d}.h{font-size:22px;font-weight:bold}.s{font-size:16px}.n{font-size:13px;fill:#526578}.b{fill:#fff;stroke:#9bb8ce;stroke-width:2}.i{fill:#e7f4ff;stroke:#0a6ed1;stroke-width:2}.g{fill:#f5f7f8;stroke:#b7c5cf;stroke-width:2}.l{stroke:#506d85;stroke-width:3;marker-end:url(#a)}</style></defs><rect width="1000" height="280" fill="#f7fafc"/><text x="30" y="35" class="h">Scenario 1: Single Fiori App</text><text x="40" y="75" class="h">Direct</text><rect x="40" y="92" width="185" height="65" rx="8" class="b"/><text x="92" y="130" class="s">Fiori App</text><line x1="225" y1="124" x2="390" y2="124" class="l"/><rect x="390" y="92" width="230" height="65" rx="8" class="b"/><text x="432" y="130" class="s">S/4HANA OData</text><text x="690" y="130" class="n">Simple and suitable</text><line x1="25" y1="185" x2="975" y2="185" stroke="#d4e1ea" stroke-width="2"/><text x="40" y="220" class="h">With IS</text><rect x="40" y="230" width="145" height="38" rx="7" class="b"/><text x="76" y="255" class="s">Fiori App</text><line x1="185" y1="249" x2="315" y2="249" class="l"/><rect x="315" y="230" width="220" height="38" rx="7" class="g"/><text x="348" y="255" class="s">API Proxy / iFlow</text><line x1="535" y1="249" x2="665" y2="249" class="l"/><rect x="665" y="230" width="200" height="38" rx="7" class="b"/><text x="700" y="255" class="s">S/4HANA</text><text x="875" y="255" class="n">Often overkill</text></svg>
