<svg xmlns="http://www.w3.org/2000/svg" width="1000" height="280"><defs><marker id="a" markerWidth="8" markerHeight="6" refX="7" refY="3" orient="auto"><path d="M0,0 L8,3 L0,6z" fill="#506d85"/></marker><style>text{font-family:Arial,sans-serif;fill:#17324d}.h{font-size:22px;font-weight:bold}.s{font-size:16px}.n{font-size:13px;fill:#526578}.b{fill:#fff;stroke:#9bb8ce;stroke-width:2}.i{fill:#e7f4ff;stroke:#0a6ed1;stroke-width:2}.l{stroke:#506d85;stroke-width:3;marker-end:url(#a)}</style></defs><rect width="1000" height="280" fill="#f7fafc"/><text x="30" y="35" class="h">Scenario 2: Multiple Backends</text><text x="40" y="70" class="h">Direct</text><rect x="40" y="90" width="165" height="62" rx="8" class="b"/><text x="75" y="127" class="s">Fiori / BFF</text><line x1="205" y1="105" x2="370" y2="70" class="l"/><line x1="205" y1="121" x2="370" y2="121" class="l"/><line x1="205" y1="137" x2="370" y2="172" class="l"/><text x="385" y="75" class="s">S/4HANA</text><text x="385" y="126" class="s">CRM</text><text x="385" y="177" class="s">Shipping SaaS</text><text x="610" y="126" class="n">App combines all contracts</text><line x1="25" y1="195" x2="975" y2="195" stroke="#d4e1ea" stroke-width="2"/><text x="40" y="227" class="h">With IS</text><rect x="40" y="235" width="145" height="35" rx="7" class="b"/><text x="74" y="258" class="s">Fiori App</text><line x1="185" y1="252" x2="315" y2="252" class="l"/><rect x="315" y="228" width="240" height="48" rx="8" class="i"/><text x="354" y="258" class="s">IS: compose / map</text><line x1="555" y1="240" x2="700" y2="220" class="l"/><line x1="555" y1="252" x2="700" y2="252" class="l"/><line x1="555" y1="264" x2="700" y2="280" class="l"/><text x="715" y="224" class="s">S/4HANA</text><text x="715" y="257" class="s">CRM</text><text x="715" y="280" class="s">Shipping SaaS</text></svg>
