<svg xmlns="http://www.w3.org/2000/svg" width="1000" height="280"><defs><marker id="a" markerWidth="8" markerHeight="6" refX="7" refY="3" orient="auto"><path d="M0,0 L8,3 L0,6z" fill="#506d85"/></marker><style>text{font-family:Arial,sans-serif;fill:#17324d}.h{font-size:22px;font-weight:bold}.s{font-size:16px}.n{font-size:13px;fill:#526578}.b{fill:#fff;stroke:#9bb8ce;stroke-width:2}.i{fill:#e7f4ff;stroke:#0a6ed1;stroke-width:2}.l{stroke:#506d85;stroke-width:3;marker-end:url(#a)}</style></defs><rect width="1000" height="280" fill="#f7fafc"/><text x="30" y="35" class="h">Scenario 3: B2B Partners</text><text x="40" y="72" class="h">Direct</text><rect x="40" y="90" width="180" height="65" rx="8" class="b"/><text x="77" y="128" class="s">S/4HANA Order</text><line x1="220" y1="105" x2="390" y2="70" class="l"/><line x1="220" y1="122" x2="390" y2="122" class="l"/><line x1="220" y1="139" x2="390" y2="174" class="l"/><text x="405" y="75" class="s">Partner JSON</text><text x="405" y="127" class="s">Partner EDI</text><text x="405" y="179" class="s">Logistics AS2</text><text x="620" y="127" class="n">Per-partner code and contracts</text><line x1="25" y1="195" x2="975" y2="195" stroke="#d4e1ea" stroke-width="2"/><text x="40" y="227" class="h">With IS</text><rect x="40" y="235" width="150" height="35" rx="7" class="b"/><text x="70" y="258" class="s">S/4HANA</text><line x1="190" y1="252" x2="315" y2="252" class="l"/><rect x="315" y="228" width="260" height="48" rx="8" class="i"/><text x="355" y="258" class="s">IS: map / route / adapt</text><line x1="575" y1="240" x2="710" y2="220" class="l"/><line x1="575" y1="252" x2="710" y2="252" class="l"/><line x1="575" y1="264" x2="710" y2="280" class="l"/><text x="725" y="224" class="s">JSON Partner</text><text x="725" y="257" class="s">EDI Partner</text><text x="725" y="280" class="s">Logistics</text></svg>
