<svg xmlns="http://www.w3.org/2000/svg" width="1000" height="280"><defs><marker id="a" markerWidth="8" markerHeight="6" refX="7" refY="3" orient="auto"><path d="M0,0 L8,3 L0,6z" fill="#506d85"/></marker><style>text{font-family:Arial,sans-serif;fill:#17324d}.h{font-size:22px;font-weight:bold}.s{font-size:16px}.n{font-size:13px;fill:#526578}.b{fill:#fff;stroke:#9bb8ce;stroke-width:2}.i{fill:#e7f4ff;stroke:#0a6ed1;stroke-width:2}.l{stroke:#506d85;stroke-width:3;marker-end:url(#a)}</style></defs><rect width="1000" height="280" fill="#f7fafc"/><text x="30" y="35" class="h">Scenario 4: Public API Governance</text><text x="40" y="75" class="h">Direct</text><rect x="40" y="92" width="180" height="65" rx="8" class="b"/><text x="72" y="130" class="s">Apps / Partners</text><line x1="220" y1="124" x2="390" y2="124" class="l"/><rect x="390" y="92" width="240" height="65" rx="8" class="b"/><text x="423" y="130" class="s">S/4HANA / BTP API</text><text x="690" y="130" class="n">Policies per backend</text><line x1="25" y1="185" x2="975" y2="185" stroke="#d4e1ea" stroke-width="2"/><text x="40" y="220" class="h">With IS</text><rect x="40" y="230" width="175" height="38" rx="7" class="b"/><text x="72" y="255" class="s">Apps / Partners</text><line x1="215" y1="249" x2="345" y2="249" class="l"/><rect x="345" y="225" width="290" height="48" rx="8" class="i"/><text x="392" y="246" class="s">API Management Proxy</text><text x="385" y="266" class="n">OAuth / quota / analytics</text><line x1="635" y1="249" x2="765" y2="249" class="l"/><rect x="765" y="230" width="190" height="38" rx="7" class="b"/><text x="794" y="255" class="s">S/4HANA / BTP</text></svg>
