<svg xmlns="http://www.w3.org/2000/svg" width="1000" height="280"><defs><marker id="a" markerWidth="8" markerHeight="6" refX="7" refY="3" orient="auto"><path d="M0,0 L8,3 L0,6z" fill="#506d85"/></marker><style>text{font-family:Arial,sans-serif;fill:#17324d}.h{font-size:22px;font-weight:bold}.s{font-size:16px}.n{font-size:13px;fill:#526578}.b{fill:#fff;stroke:#9bb8ce;stroke-width:2}.i{fill:#e7f4ff;stroke:#0a6ed1;stroke-width:2}.l{stroke:#506d85;stroke-width:3;marker-end:url(#a)}</style></defs><rect width="1000" height="280" fill="#f7fafc"/><text x="30" y="35" class="h">Scenario 5: Hybrid Connectivity</text><text x="40" y="75" class="h">Direct</text><rect x="40" y="92" width="180" height="65" rx="8" class="b"/><text x="75" y="130" class="s">BTP App / SaaS</text><line x1="220" y1="124" x2="415" y2="124" class="l"/><text x="250" y="104" class="n">App-specific network setup</text><rect x="415" y="92" width="255" height="65" rx="8" class="b"/><text x="455" y="130" class="s">On-prem S/4HANA</text><line x1="25" y1="185" x2="975" y2="185" stroke="#d4e1ea" stroke-width="2"/><text x="40" y="220" class="h">With IS</text><rect x="40" y="230" width="170" height="38" rx="7" class="b"/><text x="72" y="255" class="s">BTP App / SaaS</text><line x1="210" y1="249" x2="325" y2="249" class="l"/><rect x="325" y="225" width="205" height="48" rx="8" class="i"/><text x="352" y="246" class="s">Cloud Integration</text><text x="365" y="266" class="n">adapters / mapping</text><line x1="530" y1="249" x2="645" y2="249" class="l"/><rect x="645" y="230" width="150" height="38" rx="7" class="i"/><text x="663" y="255" class="s">Cloud Connector</text><line x1="795" y1="249" x2="890" y2="249" class="l"/><text x="900" y="255" class="s">S/4HANA</text></svg>
