<svg xmlns="http://www.w3.org/2000/svg" width="1000" height="280"><defs><marker id="a" markerWidth="8" markerHeight="6" refX="7" refY="3" orient="auto"><path d="M0,0 L8,3 L0,6z" fill="#506d85"/></marker><style>text{font-family:Arial,sans-serif;fill:#17324d}.h{font-size:22px;font-weight:bold}.s{font-size:16px}.n{font-size:13px;fill:#526578}.b{fill:#fff;stroke:#9bb8ce;stroke-width:2}.i{fill:#e7f4ff;stroke:#0a6ed1;stroke-width:2}.l{stroke:#506d85;stroke-width:3;marker-end:url(#a)}</style></defs><rect width="1000" height="280" fill="#f7fafc"/><text x="30" y="35" class="h">Scenario 6: Inventory Change Notification</text><text x="40" y="75" class="h">OData Polling</text><rect x="40" y="92" width="200" height="65" rx="8" class="b"/><text x="75" y="130" class="s">Consumers A / B / C</text><line x1="240" y1="124" x2="410" y2="124" class="l"/><rect x="410" y="92" width="210" height="65" rx="8" class="b"/><text x="448" y="130" class="s">S/4HANA OData</text><text x="690" y="130" class="n">Repeated polling</text><line x1="25" y1="185" x2="975" y2="185" stroke="#d4e1ea" stroke-width="2"/><text x="40" y="220" class="h">Event Mesh</text><rect x="40" y="230" width="155" height="38" rx="7" class="b"/><text x="65" y="255" class="s">S/4HANA Event</text><line x1="195" y1="249" x2="320" y2="249" class="l"/><rect x="320" y="225" width="175" height="48" rx="8" class="i"/><text x="355" y="255" class="s">Event Mesh</text><line x1="495" y1="237" x2="635" y2="220" class="l"/><line x1="495" y1="249" x2="635" y2="249" class="l"/><line x1="495" y1="261" x2="635" y2="278" class="l"/><text x="650" y="225" class="s">Consumer A</text><text x="650" y="255" class="s">Consumer B</text><text x="650" y="280" class="s">Consumer C</text></svg>
