<svg xmlns="http://www.w3.org/2000/svg" width="1000" height="280"><defs><marker id="a" markerWidth="8" markerHeight="6" refX="7" refY="3" orient="auto"><path d="M0,0 L8,3 L0,6z" fill="#506d85"/></marker><style>text{font-family:Arial,sans-serif;fill:#17324d}.h{font-size:22px;font-weight:bold}.s{font-size:16px}.n{font-size:13px;fill:#526578}.b{fill:#fff;stroke:#9bb8ce;stroke-width:2}.i{fill:#e7f4ff;stroke:#0a6ed1;stroke-width:2}.l{stroke:#506d85;stroke-width:3;marker-end:url(#a)}</style></defs><rect width="1000" height="280" fill="#f7fafc"/><text x="30" y="35" class="h">Scenario 7: Central Operations</text><text x="40" y="75" class="h">Direct</text><rect x="40" y="95" width="150" height="60" rx="8" class="b"/><text x="62" y="130" class="s">Fiori / BFF Log</text><rect x="270" y="95" width="130" height="60" rx="8" class="b"/><text x="306" y="130" class="s">S/4 Log</text><rect x="480" y="95" width="130" height="60" rx="8" class="b"/><text x="510" y="130" class="s">SaaS Log</text><text x="690" y="130" class="n">Manual cross-system tracing</text><line x1="25" y1="185" x2="975" y2="185" stroke="#d4e1ea" stroke-width="2"/><text x="40" y="220" class="h">With IS</text><rect x="40" y="230" width="145" height="38" rx="7" class="b"/><text x="68" y="255" class="s">Client Request</text><line x1="185" y1="249" x2="315" y2="249" class="l"/><rect x="315" y="225" width="220" height="48" rx="8" class="i"/><text x="355" y="255" class="s">iFlow / API Proxy</text><line x1="535" y1="249" x2="665" y2="249" class="l"/><rect x="665" y="225" width="210" height="48" rx="8" class="i"/><text x="728" y="247" class="s">IS Monitor</text><text x="700" y="266" class="n">integration / API view</text></svg>
